<?xml version="1.0" encoding="UTF-8"?>
<svg xmlns="http://www.w3.org/2000/svg" viewBox="0 0 512 512" width="100%" height="100%">
    <defs>
        <radialGradient id="bgCircleGrad" cx="50%" cy="50%" r="50%">
            <stop offset="0%" stop-color="#0A2240" />
            <stop offset="100%" stop-color="#05162E" />
        </radialGradient>
        
        <filter id="jShadow" x="-20%" y="-20%" width="140%" height="140%">
            <feDropShadow dx="2" dy="4" stdDeviation="6" flood-color="#020B17" flood-opacity="0.6"/>
        </filter>
    </defs>

    <circle cx="256" cy="256" r="240" fill="url(#bgCircleGrad)" stroke="#CBD5E1" stroke-width="8" />

    <g transform="translate(4, 5)">
        <path d="M 215,260 L 215,395 L 300,395 L 300,300 Z" fill="#0284C7" />
        <path d="M 218,190 L 218,260 L 285,260 L 285,190 Z" fill="#0369A1" />
        <path d="M 230,140 L 230,190 L 274,190 L 274,140 Z" fill="#0284C7" />
        
        <path d="M 240,150 A 10,10 0 0 1 264,150 L 264,175 L 240,175 Z" fill="#38BDF8" />
        <path d="M 226,205 A 8,8 0 0 1 242,205 L 242,235 L 226,235 Z" fill="#38BDF8" />
        <path d="M 260,205 A 8,8 0 0 1 276,205 L 276,235 L 260,235 Z" fill="#38BDF8" />
        <path d="M 222,320 A 16,16 0 0 1 254,320 L 254,395 L 222,395 Z" fill="#1E3A8A" opacity="0.5" />

        <path d="M 252,90 L 252,100 M 240,135 C 240,110 264,110 264,135 Z" stroke="#FFFFFF" stroke-width="4" stroke-linecap="round" fill="none" />
        <path d="M 230,135 L 274,135" stroke="#FFFFFF" stroke-width="5" stroke-linecap="round" />
        
        <path d="M 232,135 L 232,185 M 272,185 L 272,135" stroke="#FFFFFF" stroke-width="5" fill="none" />
        <path d="M 222,185 L 282,185" stroke="#FFFFFF" stroke-width="6" stroke-linecap="round" />
        
        <path d="M 225,185 L 225,260 M 279,260 L 279,185" stroke="#FFFFFF" stroke-width="5" fill="none" />
        <path d="M 205,260 L 298,260" stroke="#FFFFFF" stroke-width="7" stroke-linecap="round" />
        <path d="M 213,260 L 202,280 L 298,280" stroke="#FFFFFF" stroke-width="4" fill="none" />

        <path d="M 213,280 L 213,400 M 290,280 L 290,400" stroke="#FFFFFF" stroke-width="6" fill="none" />
        <path d="M 220,400 L 220,320 A 16,16 0 0 1 254,320 A 16,16 0 0 1 284,320 L 284,400" stroke="#FFFFFF" stroke-width="5" fill="none" />
    </g>

    <g filter="url(#jShadow)">
        <path d="M 245,262 
                 L 310,262 
                 L 310,274
                 L 292,274
                 L 292,365 
                 C 292,402 265,424 225,424
                 C 180,424 162,398 162,370
                 C 162,345 180,332 195,332
                 C 210,332 218,342 218,355
                 C 218,375 198,375 198,384
                 C 198,398 215,408 235,408
                 C 262,408 274,385 274,358
                 L 274,274
                 L 255,274
                 Z" 
              fill="#FFFFFF" />
    </g>

    <circle cx="256" cy="95" r="7" fill="#10B981" />
</svg>
